<svg width="122" height="36" viewBox="0 0 122 36" fill="none" xmlns="http://www.w3.org/2000/svg">
<path d="M12.456 9.152V12.44H5.592V15.992H10.728V19.184H5.592V26H1.488V9.152H12.456ZM20.709 26.168C19.477 26.168 18.373 25.968 17.397 25.568C16.421 25.168 15.637 24.576 15.045 23.792C14.469 23.008 14.165 22.064 14.133 20.96H18.501C18.565 21.584 18.781 22.064 19.149 22.4C19.517 22.72 19.997 22.88 20.589 22.88C21.197 22.88 21.677 22.744 22.029 22.472C22.381 22.184 22.557 21.792 22.557 21.296C22.557 20.88 22.413 20.536 22.125 20.264C21.853 19.992 21.509 19.768 21.093 19.592C20.693 19.416 20.117 19.216 19.365 18.992C18.277 18.656 17.389 18.32 16.701 17.984C16.013 17.648 15.421 17.152 14.925 16.496C14.429 15.84 14.181 14.984 14.181 13.928C14.181 12.36 14.749 11.136 15.885 10.256C17.021 9.36 18.501 8.912 20.325 8.912C22.181 8.912 23.677 9.36 24.813 10.256C25.949 11.136 26.557 12.368 26.637 13.952H22.197C22.165 13.408 21.965 12.984 21.597 12.68C21.229 12.36 20.757 12.2 20.181 12.2C19.685 12.2 19.285 12.336 18.981 12.608C18.677 12.864 18.525 13.24 18.525 13.736C18.525 14.28 18.781 14.704 19.293 15.008C19.805 15.312 20.605 15.64 21.693 15.992C22.781 16.36 23.661 16.712 24.333 17.048C25.021 17.384 25.613 17.872 26.109 18.512C26.605 19.152 26.853 19.976 26.853 20.984C26.853 21.944 26.605 22.816 26.109 23.6C25.629 24.384 24.925 25.008 23.997 25.472C23.069 25.936 21.973 26.168 20.709 26.168ZM52.5626 9.152L48.1706 26H43.2026L40.5146 14.912L37.7306 26H32.7626L28.4906 9.152H32.8826L35.3066 21.416L38.3066 9.152H42.8186L45.6986 21.416L48.1466 9.152H52.5626Z" fill="url(#paint0_linear_856_2342)"/>
<path d="M65.6588 26.168C64.4908 26.168 63.4348 25.968 62.4908 25.568C61.5628 25.168 60.8268 24.592 60.2828 23.84C59.7388 23.088 59.4588 22.2 59.4428 21.176H63.0428C63.0908 21.864 63.3308 22.408 63.7628 22.808C64.2108 23.208 64.8188 23.408 65.5868 23.408C66.3708 23.408 66.9868 23.224 67.4348 22.856C67.8828 22.472 68.1068 21.976 68.1068 21.368C68.1068 20.872 67.9548 20.464 67.6508 20.144C67.3468 19.824 66.9628 19.576 66.4988 19.4C66.0508 19.208 65.4268 19 64.6268 18.776C63.5388 18.456 62.6508 18.144 61.9628 17.84C61.2908 17.52 60.7068 17.048 60.2108 16.424C59.7308 15.784 59.4908 14.936 59.4908 13.88C59.4908 12.888 59.7388 12.024 60.2348 11.288C60.7308 10.552 61.4268 9.992 62.3228 9.608C63.2188 9.208 64.2428 9.008 65.3948 9.008C67.1228 9.008 68.5228 9.432 69.5948 10.28C70.6828 11.112 71.2828 12.28 71.3948 13.784H67.6988C67.6668 13.208 67.4188 12.736 66.9548 12.368C66.5068 11.984 65.9068 11.792 65.1548 11.792C64.4988 11.792 63.9708 11.96 63.5708 12.296C63.1868 12.632 62.9948 13.12 62.9948 13.76C62.9948 14.208 63.1388 14.584 63.4268 14.888C63.7308 15.176 64.0988 15.416 64.5308 15.608C64.9788 15.784 65.6028 15.992 66.4028 16.232C67.4908 16.552 68.3788 16.872 69.0668 17.192C69.7548 17.512 70.3468 17.992 70.8428 18.632C71.3388 19.272 71.5868 20.112 71.5868 21.152C71.5868 22.048 71.3548 22.88 70.8907 23.648C70.4268 24.416 69.7468 25.032 68.8508 25.496C67.9548 25.944 66.8908 26.168 65.6588 26.168ZM78.4118 15.464V21.896C78.4118 22.344 78.5158 22.672 78.7238 22.88C78.9478 23.072 79.3158 23.168 79.8278 23.168H81.3878V26H79.2758C76.4438 26 75.0278 24.624 75.0278 21.872V15.464H73.4438V12.704H75.0278V9.416H78.4118V12.704H81.3878V15.464H78.4118ZM89.7084 26.216C88.4284 26.216 87.2764 25.936 86.2524 25.376C85.2284 24.8 84.4204 23.992 83.8284 22.952C83.2524 21.912 82.9644 20.712 82.9644 19.352C82.9644 17.992 83.2604 16.792 83.8524 15.752C84.4604 14.712 85.2844 13.912 86.3244 13.352C87.3644 12.776 88.5244 12.488 89.8044 12.488C91.0844 12.488 92.2444 12.776 93.2844 13.352C94.3244 13.912 95.1404 14.712 95.7324 15.752C96.3404 16.792 96.6444 17.992 96.6444 19.352C96.6444 20.712 96.3324 21.912 95.7084 22.952C95.1004 23.992 94.2684 24.8 93.2124 25.376C92.1724 25.936 91.0044 26.216 89.7084 26.216ZM89.7084 23.288C90.3164 23.288 90.8844 23.144 91.4124 22.856C91.9564 22.552 92.3884 22.104 92.7084 21.512C93.0284 20.92 93.1884 20.2 93.1884 19.352C93.1884 18.088 92.8524 17.12 92.1804 16.448C91.5244 15.76 90.7164 15.416 89.7564 15.416C88.7964 15.416 87.9884 15.76 87.3324 16.448C86.6924 17.12 86.3724 18.088 86.3724 19.352C86.3724 20.616 86.6844 21.592 87.3084 22.28C87.9484 22.952 88.7484 23.288 89.7084 23.288ZM102.469 14.768C102.901 14.064 103.461 13.512 104.149 13.112C104.853 12.712 105.653 12.512 106.549 12.512V16.04H105.661C104.605 16.04 103.805 16.288 103.261 16.784C102.733 17.28 102.469 18.144 102.469 19.376V26H99.1091V12.704H102.469V14.768ZM121.172 19.064C121.172 19.544 121.14 19.976 121.076 20.36H111.356C111.436 21.32 111.772 22.072 112.364 22.616C112.956 23.16 113.684 23.432 114.548 23.432C115.796 23.432 116.684 22.896 117.212 21.824H120.836C120.452 23.104 119.716 24.16 118.628 24.992C117.54 25.808 116.204 26.216 114.62 26.216C113.34 26.216 112.188 25.936 111.164 25.376C110.156 24.8 109.364 23.992 108.788 22.952C108.228 21.912 107.948 20.712 107.948 19.352C107.948 17.976 108.228 16.768 108.788 15.728C109.348 14.688 110.132 13.888 111.14 13.328C112.148 12.768 113.308 12.488 114.62 12.488C115.884 12.488 117.012 12.76 118.004 13.304C119.012 13.848 119.788 14.624 120.332 15.632C120.892 16.624 121.172 17.768 121.172 19.064ZM117.692 18.104C117.676 17.24 117.364 16.552 116.756 16.04C116.148 15.512 115.404 15.248 114.524 15.248C113.692 15.248 112.988 15.504 112.412 16.016C111.852 16.512 111.508 17.208 111.38 18.104H117.692Z" fill="white"/>
<defs>
<linearGradient id="paint0_linear_856_2342" x1="0" y1="18" x2="47.7177" y2="18" gradientUnits="userSpaceOnUse">
<stop stop-color="#5033C3"/>
<stop offset="1" stop-color="#8162FF"/>
</linearGradient>
</defs>
</svg>
